<?xml version="1.0" encoding="iso-8859-1"?>
<!-- Generator: Adobe Illustrator 18.0.0, SVG Export Plug-In . SVG Version: 6.00 Build 0)  -->
<!DOCTYPE svg PUBLIC "-//W3C//DTD SVG 1.1//EN" "http://www.w3.org/Graphics/SVG/1.1/DTD/svg11.dtd">
<svg version="1.1" id="Capa_1" xmlns="http://www.w3.org/2000/svg" xmlns:xlink="http://www.w3.org/1999/xlink" x="0px" y="0px"
	 viewBox="0 0 295.517 295.517" style="enable-background:new 0 0 295.517 295.517;" xml:space="preserve">
<g>
	<path d="M91.017,87.759h130c5.247,0,9.5-4.253,9.5-9.5v-47c0-5.247-4.253-9.5-9.5-9.5h-130c-5.247,0-9.5,4.253-9.5,9.5v47
		C81.517,83.505,85.77,87.759,91.017,87.759z"/>
	<path d="M286.017,114.759h-195c-5.247,0-9.5,4.253-9.5,9.5v47c0,5.247,4.253,9.5,9.5,9.5h195c5.247,0,9.5-4.253,9.5-9.5v-47
		C295.517,119.012,291.264,114.759,286.017,114.759z"/>
	<path d="M196.017,207.759h-105c-5.247,0-9.5,4.253-9.5,9.5v47c0,5.247,4.253,9.5,9.5,9.5h105c5.247,0,9.5-4.253,9.5-9.5v-47
		C205.517,212.012,201.264,207.759,196.017,207.759z"/>
	<circle cx="33" cy="54.759" r="33"/>
	<circle cx="33" cy="147.759" r="33"/>
	<circle cx="33" cy="240.759" r="33"/>
</g>
<g>
</g>
<g>
</g>
<g>
</g>
<g>
</g>
<g>
</g>
<g>
</g>
<g>
</g>
<g>
</g>
<g>
</g>
<g>
</g>
<g>
</g>
<g>
</g>
<g>
</g>
<g>
</g>
<g>
</g>
</svg>
